<mxfile host="app.diagrams.net" modified="2021-03-09T13:17:45.676Z" agent="5.0 (Windows NT 10.0; Win64; x64) AppleWebKit/537.36 (KHTML, like Gecko) Chrome/65.0.3325.146 Safari/537.36" etag="6zyi0tT8eYUm3T_fkN0u" version="14.4.3" type="github">
  <diagram id="bA5IikIFCxRGcdZkV2es" name="Page-1">
    <mxGraphModel dx="1038" dy="560" grid="1" gridSize="10" guides="1" tooltips="1" connect="1" arrows="1" fold="1" page="1" pageScale="1" pageWidth="827" pageHeight="1169" math="0" shadow="0">
      <root>
        <mxCell id="0" />
        <mxCell id="1" parent="0" />
        <mxCell id="KXyVSOE2EWkhX6-pmqHH-5" style="edgeStyle=orthogonalEdgeStyle;rounded=0;orthogonalLoop=1;jettySize=auto;html=1;fontSize=20;" edge="1" parent="1" source="KXyVSOE2EWkhX6-pmqHH-1" target="KXyVSOE2EWkhX6-pmqHH-2">
          <mxGeometry relative="1" as="geometry" />
        </mxCell>
        <mxCell id="KXyVSOE2EWkhX6-pmqHH-1" value="&lt;font style=&quot;font-size: 20px&quot;&gt;用户&lt;/font&gt;" style="shape=umlActor;verticalLabelPosition=bottom;verticalAlign=top;html=1;outlineConnect=0;" vertex="1" parent="1">
          <mxGeometry x="180" y="255" width="30" height="60" as="geometry" />
        </mxCell>
        <mxCell id="KXyVSOE2EWkhX6-pmqHH-6" value="" style="edgeStyle=orthogonalEdgeStyle;rounded=0;orthogonalLoop=1;jettySize=auto;html=1;fontSize=20;" edge="1" parent="1" source="KXyVSOE2EWkhX6-pmqHH-2" target="KXyVSOE2EWkhX6-pmqHH-3">
          <mxGeometry relative="1" as="geometry" />
        </mxCell>
        <mxCell id="KXyVSOE2EWkhX6-pmqHH-2" value="订&lt;br style=&quot;font-size: 20px;&quot;&gt;单" style="rounded=1;whiteSpace=wrap;html=1;fontSize=20;fillColor=#dae8fc;strokeColor=#6c8ebf;" vertex="1" parent="1">
          <mxGeometry x="260" y="210" width="70" height="150" as="geometry" />
        </mxCell>
        <mxCell id="KXyVSOE2EWkhX6-pmqHH-3" value="商&lt;br&gt;品" style="rounded=1;whiteSpace=wrap;html=1;fontSize=20;fillColor=#dae8fc;strokeColor=#6c8ebf;" vertex="1" parent="1">
          <mxGeometry x="379" y="210" width="70" height="150" as="geometry" />
        </mxCell>
      </root>
    </mxGraphModel>
  </diagram>
</mxfile>
